<svg width="229" height="42" viewBox="0 0 229 42" fill="none" xmlns="http://www.w3.org/2000/svg">
<path d="M127.002 22.7554C132.214 22.7554 137.452 20.5438 138.285 13.5876H132.032C131.328 16.0991 129.478 17.243 127.002 17.243C123.797 17.243 121.295 14.8841 121.295 11.3805C121.295 7.85168 123.797 5.51716 127.002 5.51716C129.478 5.51716 131.328 6.66184 132.032 9.12296H138.285C137.452 2.21198 132.162 0.000375748 127.002 0.000375748C119.712 0.000375748 114.823 4.60202 114.823 11.3805C114.823 18.1582 119.712 22.7554 127.002 22.7554ZM162.04 22.0586L158.032 14.9448C160.008 13.7039 161.388 11.6248 161.388 8.69056C161.388 3.2952 158.085 0.701544 152.065 0.701544H139.906V22.0586H146.442V16.262H152.43L155.609 22.0586H162.04ZM146.442 6.01102H151.648C153.733 6.01102 154.854 6.97651 154.854 8.74165C154.854 10.506 153.733 11.4723 151.648 11.4723H146.442V6.01102ZM163.619 22.0586H182.897V16.9024H170.155V13.5106H182.429V9.21403H170.155V5.82739H182.897V0.701544H163.619V22.0586ZM207.241 0.701544H184.758V6.04137H192.731V22.0586H199.267V6.04137H207.241V0.701544ZM209.091 22.0586H228.369V16.9024H215.626V13.5106H227.9V9.21403H215.626V5.82739H228.369V0.701544H209.091V22.0586Z" fill="#E91F27"/>
<path d="M9.7415 39.3612C10.4205 38.9073 10.7596 38.2683 10.7596 37.4428C10.7596 36.6454 10.4131 36.0301 9.71929 35.5969C9.02627 35.1638 8.0008 34.9476 6.64363 34.9476H1.75249V40.0416H6.95312C8.13333 40.0416 9.06329 39.8151 9.7415 39.3612ZM8.89892 32.8493C9.56232 32.4095 9.89403 31.7631 9.89403 30.9109C9.89403 30.1816 9.59934 29.6041 9.00924 29.1776C8.41987 28.7519 7.57136 28.5386 6.46519 28.5386H1.75249V33.5097H6.33266C7.3796 33.5097 8.23477 33.2898 8.89892 32.8493ZM8.67976 27.3577C9.29948 27.5287 9.83109 27.7679 10.2739 28.0766C10.7174 28.3846 11.0565 28.7615 11.2927 29.2057C11.5288 29.6515 11.6473 30.1475 11.6473 30.6954C11.6473 31.1745 11.577 31.5928 11.4363 31.9482C11.2964 32.3043 11.1083 32.619 10.8721 32.893C10.6359 33.1677 10.3746 33.3964 10.0865 33.5815C9.79925 33.7659 9.50013 33.9199 9.19064 34.0436C9.64821 34.1665 10.0791 34.3279 10.4856 34.5263C10.8914 34.7247 11.2423 34.9609 11.5377 35.2349C11.8332 35.5088 12.0693 35.8376 12.2463 36.2211C12.4233 36.6046 12.5121 37.0422 12.5121 37.5353C12.5121 38.1521 12.3788 38.7067 12.1138 39.199C11.848 39.6921 11.4674 40.1068 10.9728 40.4422C10.4782 40.7776 9.8844 41.0345 9.19064 41.2122C8.49613 41.3906 7.72833 41.4795 6.88722 41.4795H-6.10352e-05V27.1007H6.59846C7.36627 27.1007 8.06003 27.1866 8.67976 27.3577Z" fill="white"/>
<path d="M35.2953 35.3378C35.2953 36.3921 35.1399 37.3169 34.8296 38.1106C34.5187 38.9051 34.0789 39.5692 33.5095 40.1031C32.9401 40.6377 32.2597 41.0382 31.4682 41.3048C30.6774 41.572 29.7934 41.7053 28.8175 41.7053C27.8557 41.7053 26.9798 41.572 26.1883 41.3048C25.3976 41.0382 24.7164 40.6406 24.1477 40.1134C23.5784 39.5863 23.1386 38.9325 22.8276 38.1521C22.5174 37.371 22.3619 36.4743 22.3619 35.4607V27.1008H24.1144V35.3585C24.1144 36.9193 24.532 38.118 25.3679 38.9532C26.2031 39.7884 27.3678 40.206 28.8619 40.206C30.2961 40.206 31.4349 39.8091 32.2782 39.0147C33.1215 38.221 33.5428 37.0363 33.5428 35.4607V27.1008H35.2953V35.3378Z" fill="white"/>
<path d="M48.3837 41.4795H46.6312V27.1007H48.3837V41.4795Z" fill="white"/>
<path d="M59.9639 27.1007H61.7164V39.9802H70.4569V41.4795H59.9639V27.1007Z" fill="white"/>
<path d="M90.7667 32.0716C90.4631 31.3734 90.0344 30.7677 89.4799 30.2539C88.9253 29.7401 88.2486 29.3365 87.4504 29.0419C86.6515 28.7472 85.7638 28.5998 84.7879 28.5998H81.1495V39.9799H84.7879C85.7638 39.9799 86.6515 39.8363 87.4504 39.5483C88.2486 39.261 88.9253 38.8604 89.4799 38.3473C90.0344 37.8335 90.4631 37.2345 90.7667 36.5496C91.0695 35.8655 91.2213 35.1191 91.2213 34.3106C91.2213 33.5169 91.0695 32.7706 90.7667 32.0716ZM92.4415 37.1145C92.0424 37.9978 91.4767 38.7612 90.7445 39.4046C90.0122 40.0488 89.1393 40.5552 88.1271 40.9247C87.1135 41.2949 86.0007 41.4792 84.7879 41.4792H79.397V27.1005H84.7879C86.0007 27.1005 87.1135 27.2826 88.1271 27.6454C89.1393 28.0082 90.0122 28.511 90.7445 29.1544C91.4767 29.7986 92.0424 30.559 92.4415 31.4349C92.8413 32.3115 93.0405 33.2563 93.0405 34.2699C93.0405 35.2828 92.8413 36.2312 92.4415 37.1145Z" fill="white"/>
<path d="M114.56 28.5796H105.087V33.4885H113.562V34.9678H105.087V40.0004H114.671V41.4797H103.334V27.101H114.56V28.5796Z" fill="white"/>
<path d="M133.835 29.3523C133.138 28.8511 132.16 28.6001 130.899 28.6001H126.096V34.4545H130.877C131.455 34.4545 131.989 34.3856 132.479 34.2479C132.968 34.1109 133.39 33.9147 133.746 33.6608C134.102 33.4068 134.38 33.0936 134.581 32.7227C134.781 32.3517 134.881 31.9327 134.881 31.4655C134.881 30.5585 134.532 29.8543 133.835 29.3523ZM135.036 41.4795L130.533 35.8924H126.096V41.4795H124.343V27.1007H131.021C131.878 27.1007 132.651 27.2037 133.339 27.4088C134.027 27.6146 134.615 27.9056 135.103 28.2824C135.591 28.6593 135.968 29.111 136.234 29.6389C136.5 30.166 136.633 30.7517 136.633 31.3959C136.633 31.9986 136.53 32.5368 136.323 33.0092C136.116 33.4816 135.823 33.8933 135.446 34.242C135.069 34.5915 134.621 34.8824 134.104 35.1157C133.586 35.3489 133.024 35.5133 132.418 35.6088L137.188 41.4795H135.036Z" fill="white"/>
<path d="M147.614 31.6044C147.733 31.8783 147.947 32.1293 148.258 32.3552C148.568 32.5817 148.998 32.7876 149.545 32.9727C150.091 33.1578 150.794 33.3325 151.652 33.4969C153.382 33.8538 154.658 34.3469 155.479 34.9784C156.299 35.6093 156.71 36.48 156.71 37.5906C156.71 38.2081 156.579 38.7708 156.316 39.278C156.053 39.7859 155.69 40.2176 155.229 40.5744C154.767 40.9306 154.211 41.2053 153.56 41.397C152.909 41.5888 152.199 41.6851 151.431 41.6851C150.188 41.6851 149.052 41.4992 148.025 41.1283C146.997 40.7573 146.017 40.1828 145.085 39.4046L146.172 38.2133C146.986 38.8989 147.806 39.4083 148.635 39.7437C149.463 40.0799 150.417 40.2472 151.496 40.2472C152.546 40.2472 153.386 40.0206 154.015 39.5682C154.643 39.1158 154.958 38.5191 154.958 37.7787C154.958 37.4359 154.899 37.1308 154.779 36.8628C154.661 36.5955 154.454 36.3526 154.157 36.1327C153.86 35.9128 153.449 35.7144 152.922 35.536C152.397 35.3575 151.725 35.1865 150.91 35.0214C150.021 34.8437 149.246 34.6378 148.587 34.4046C147.926 34.1714 147.381 33.89 146.952 33.5605C146.522 33.2318 146.203 32.8483 145.996 32.4092C145.788 31.9701 145.684 31.4489 145.684 30.8455C145.684 30.2694 145.81 29.7415 146.061 29.2617C146.313 28.7812 146.667 28.3666 147.127 28.0164C147.585 27.6669 148.125 27.3929 148.746 27.1938C149.367 26.9946 150.047 26.8954 150.787 26.8954C151.926 26.8954 152.92 27.0405 153.77 27.3307C154.621 27.621 155.446 28.0578 156.244 28.6413L155.224 29.894C154.499 29.3469 153.77 28.9493 153.039 28.7027C152.306 28.4562 151.541 28.3333 150.743 28.3333C150.239 28.3333 149.785 28.3947 149.378 28.5184C148.971 28.642 148.624 28.8064 148.336 29.0122C148.047 29.2181 147.825 29.4646 147.67 29.7526C147.514 30.0414 147.437 30.3494 147.437 30.6781C147.437 31.0217 147.496 31.3304 147.614 31.6044Z" fill="white"/>
<path d="M180.251 41.4795H178.499V27.1007H180.251V41.4795Z" fill="white"/>
<path d="M202.813 27.1007H204.521V41.4795H203.123L193.095 29.6885V41.4795H191.387V27.1007H193.03L202.813 38.6245V27.1007Z" fill="white"/>
<path d="M227.116 40.2369C226.68 40.5449 226.209 40.8085 225.707 41.0276C225.204 41.2468 224.664 41.4178 224.087 41.5415C223.511 41.6644 222.867 41.7258 222.157 41.7258C221.033 41.7258 219.998 41.5341 219.052 41.1505C218.105 40.7677 217.284 40.2435 216.589 39.5794C215.894 38.9152 215.35 38.1311 214.959 37.2271C214.567 36.3238 214.37 35.3516 214.37 34.3106C214.37 33.2837 214.567 32.3182 214.959 31.4142C215.35 30.5109 215.894 29.7201 216.589 29.0419C217.284 28.3637 218.112 27.8298 219.074 27.4396C220.035 27.0494 221.085 26.854 222.224 26.854C222.934 26.854 223.574 26.9088 224.143 27.0183C224.712 27.1279 225.241 27.2827 225.729 27.4804C226.217 27.6795 226.669 27.9187 227.082 28.1993C227.496 28.4807 227.895 28.7916 228.28 29.1344L227.082 30.3258C226.417 29.7505 225.703 29.2781 224.942 28.9079C224.18 28.5384 223.267 28.3533 222.202 28.3533C221.344 28.3533 220.549 28.5043 219.817 28.8057C219.085 29.107 218.449 29.5246 217.909 30.0585C217.369 30.593 216.948 31.2194 216.645 31.9384C216.341 32.6573 216.19 33.434 216.19 34.2692C216.19 35.1051 216.341 35.8855 216.645 36.6111C216.948 37.3374 217.369 37.9668 217.909 38.5013C218.449 39.0352 219.085 39.4565 219.817 39.7645C220.549 40.0725 221.344 40.2265 222.202 40.2265C223.267 40.2265 224.184 40.0451 224.953 39.6823C225.722 39.3195 226.476 38.8094 227.216 38.1519L228.369 39.1996C227.97 39.5831 227.552 39.9289 227.116 40.2369Z" fill="white"/>
<path d="M101.116 17.2433C97.9007 17.2433 95.3159 15.0317 95.3159 11.38C95.3159 7.72901 97.9007 5.51741 101.116 5.51741C104.332 5.51741 106.917 7.72901 106.917 11.38C106.917 15.0317 104.332 17.2433 101.116 17.2433ZM101.116 -0.000118256C93.7048 -0.000118256 88.8425 4.60226 88.8425 11.38C88.8425 18.1584 93.7048 22.7556 101.116 22.7556C108.527 22.7556 113.389 18.1584 113.389 11.38C113.389 4.60226 108.527 -0.000118256 101.116 -0.000118256Z" fill="white"/>
<path d="M77.9294 11.472H72.7236V6.01072H77.9294C80.0144 6.01072 81.1346 6.97696 81.1346 8.74135C81.1346 10.5057 80.0144 11.472 77.9294 11.472ZM87.6702 8.69026C87.6702 3.29564 84.3658 0.701988 78.347 0.701988H66.188V22.0583H72.7236V16.2617H78.7113L81.8906 22.0583H88.3218L84.3139 14.9452C86.2886 13.7043 87.6702 11.6245 87.6702 8.69026Z" fill="white"/>
<path d="M54.2165 11.472H49.01V6.01072H54.2165C56.3008 6.01072 57.4217 6.97696 57.4217 8.74135C57.4217 10.5057 56.3008 11.472 54.2165 11.472ZM63.9573 8.69026C63.9573 3.29564 60.6529 0.701988 54.6334 0.701988H42.4744V22.0583H49.01V16.2617H54.9984L58.1777 22.0583H64.6089L60.6011 14.9452C62.5765 13.7043 63.9573 11.6245 63.9573 8.69026Z" fill="white"/>
<path d="M21.2112 22.0586H40.4893V16.9024H27.7468V13.5106H40.0206V9.21398H27.7468V5.82734H40.4893V0.701492H21.2112V22.0586Z" fill="white"/>
<path d="M6.10352e-05 22.0586H6.53565V14.3095H18.6265V9.67155H6.53565V6.04132H19.2255V0.701492H6.10352e-05V22.0586Z" fill="white"/>
</svg>
